<?xml version="1.0" encoding="UTF-8"?>
<svg version="1.1" xmlns="http://www.w3.org/2000/svg" width="900" height="1024">
<path d="M0 0 C297 0 594 0 900 0 C900 337.92 900 675.84 900 1024 C603 1024 306 1024 0 1024 C0 686.08 0 348.16 0 0 Z " fill="#0B0B0D" transform="translate(0,0)"/>
<path d="M0 0 C174.58987226 0 174.58987226 0 206.8125 30.375 C218.19676247 42.67688564 225.93603993 56.74415973 230 73 C230.22558594 73.88171875 230.45117188 74.7634375 230.68359375 75.671875 C233.9773966 91.39126514 232.85923512 108.5089581 229 124 C228.80664062 124.87011719 228.61328125 125.74023438 228.4140625 126.63671875 C223.09435643 147.53556404 208.7680667 164.51004374 190.48754883 175.41674805 C185.98484012 178.03550785 182.14203087 180.09700921 177 181 C180.18152208 187.57990744 183.62015912 193.89487247 187.4375 200.125 C191.98543632 207.62760123 196.4625772 215.16688156 200.875 222.75 C201.45588379 223.74781494 202.03676758 224.74562988 202.63525391 225.77368164 C204.42435673 228.84862522 206.21223864 231.92427634 208 235 C210.43595803 239.1883993 212.87336945 243.37594742 215.3125 247.5625 C215.90345459 248.57683105 216.49440918 249.59116211 217.10327148 250.63623047 C220.17799652 255.90533091 223.2785622 261.15601627 226.4375 266.375 C230.33714333 272.84973987 234.16464785 279.36583223 237.96121216 285.90142822 C238.64901585 287.08402463 239.33850785 288.26564086 240.02975464 289.44622803 C241.00385479 291.11106233 241.97080612 292.78007307 242.9375 294.44921875 C243.50339844 295.42205811 244.06929687 296.39489746 244.65234375 297.3972168 C246 300 246 300 247 304 C218.95 304 190.9 304 162 304 C158.7550205 298.05087091 155.52370847 292.12048598 152.375 286.125 C148.59317052 278.98227347 144.58787502 271.97397184 140.56176758 264.96679688 C137.35150922 259.37638928 134.18153549 253.76678479 131.0625 248.125 C127.28296474 241.29370407 123.4660427 234.4844115 119.625 227.6875 C119.08407715 226.7289209 118.5431543 225.7703418 117.98583984 224.78271484 C115.18585889 219.82979689 112.36342074 214.89146884 109.50390625 209.97265625 C108.94687012 209.01077393 108.38983398 208.0488916 107.81591797 207.05786133 C106.75146877 205.2224445 105.68169604 203.39010204 104.60595703 201.5612793 C104.1314209 200.74183838 103.65688477 199.92239746 103.16796875 199.078125 C102.74797607 198.36043945 102.3279834 197.64275391 101.89526367 196.90332031 C101 195 101 195 101 192 C91.76 192 82.52 192 73 192 C73 228.63 73 265.26 73 303 C48.91 303 24.82 303 0 303 C0 203.01 0 103.02 0 0 Z " fill="#ECEDEF" transform="translate(413,371)"/>
<path d="M0 0 C23.43 0 46.86 0 71 0 C71 78.21 71 156.42 71 237 C106.64 237 142.28 237 179 237 C179 259.44 179 281.88 179 305 C119.93 305 60.86 305 0 305 C0 204.35 0 103.7 0 0 Z " fill="#ECEDEF" transform="translate(212,370)"/>
<path d="M0 0 C1.31556885 0.00966797 1.31556885 0.00966797 2.65771484 0.01953125 C14.78356312 0.3580306 24.83884087 4.73763017 33.3125 13.5 C42.71387647 25.23987011 44.23431383 34.86803439 43.3125 49.5 C41.35790708 61.72031201 34.10611365 71.2657446 24.3125 78.5 C21.39482136 80.17742762 18.49199334 81.41212043 15.3125 82.5 C14.24 82.9125 13.1675 83.325 12.0625 83.75 C-0.65774668 86.29404934 -12.6978562 84.28415806 -23.6875 77.5 C-32.9754653 70.81144888 -39.69107248 61.90741887 -41.6875 50.5 C-43.39760986 36.38570482 -41.06531494 26.75379224 -33.015625 15.07421875 C-24.97114192 4.90369371 -12.69031656 -0.09786248 0 0 Z " fill="#664CEE" transform="translate(723.6875,594.5)"/>
<path d="M0 0 C6.22875 -0.061875 12.4575 -0.12375 18.875 -0.1875 C20.79940918 -0.21481201 22.72381836 -0.24212402 24.70654297 -0.27026367 C33.2255549 -0.34071699 41.51056158 -0.04844421 49.9296875 1.33203125 C51.01647293 1.50905327 51.01647293 1.50905327 52.12521362 1.68965149 C58.53170288 2.86572221 63.68976924 5.30551561 69 9 C69.60070312 9.39058594 70.20140625 9.78117187 70.8203125 10.18359375 C75.78231318 13.78665455 79.06972357 19.48820649 80.625 25.359375 C82.04395747 35.35120054 82.32008244 46.68076327 76.3125 55.1875 C68.35369648 64.80677331 58.32933793 69.78435672 46 72 C42.38185933 72.25381275 38.78179936 72.23426722 35.15625 72.1953125 C34.2600293 72.19329834 33.36380859 72.19128418 32.44042969 72.18920898 C29.12690026 72.17882966 25.8134444 72.15090778 22.5 72.125 C15.075 72.08375 7.65 72.0425 0 72 C0 48.24 0 24.48 0 0 Z " fill="#0E0E0F" transform="translate(486,430)"/>
<path d="M0 0 C0.66 0.33 1.32 0.66 2 1 C0.38405168 3.04119788 -1.2856382 5.04072937 -3 7 C-3.66 7 -4.32 7 -5 7 C-3.70700306 4.11562221 -2.34058637 2.12780579 0 0 Z " fill="#5E49CC" transform="translate(696,604)"/>
</svg>
